<?xml version="1.0" encoding="UTF-8"?><svg width="378" height="350" viewBox="63.4765625 60.557232704403 369.140625 341.85534591195" xmlns="http://www.w3.org/2000/svg" xmlns:xlink="http://www.w3.org/1999/xlink" version="1.1" id="Layer_1" x="0px" y="0px" style="enable-background:new 0 0 500 465.9;" xml:space="preserve"> <style xmlns="http://www.w3.org/2000/svg" type="text/css"> .st0{fill:#A7A9AC;} .st1{fill:#27AAE1;} .st2{fill:#FC3D21;} .st3{fill:#58595B;} </style> <path xmlns="http://www.w3.org/2000/svg" class="st0" d="M315.4,121.1c0-16-13-29-29-29c-4.6,0-8.9,1.1-12.7,2.9l25.4,52.2C308.7,142.5,315.4,132.6,315.4,121.1"/> <path xmlns="http://www.w3.org/2000/svg" class="st1" d="M416.1,349.7c-38.6-49.5-98.8-81.3-166.4-81.3c-67.6,0-127.8,31.8-166.4,81.3c46.2-35.3,103.9-56.3,166.4-56.3 C312.3,293.4,370,314.4,416.1,349.7"/> <g xmlns="http://www.w3.org/2000/svg"> <path class="st2" d="M258.7,181.8c-1.2,0.4-91.7,26.1-100.3,28.8c-26.4,8.2-41.3,17.6-52,32.5c-13.8,19.2-9.7,44.8,5.9,59.9 c12.4-10.6,26-19.8,40.6-27.3c0,0-0.8-0.3-4.1-2c-3.6-1.9-8.1-5.9-9.6-9.7c-3.2-8.1,1.7-19.4,10.3-27.5 c7.3-6.8,17.8-13.1,31.4-18.6c5.2-2.1,10.8-4.1,16.9-6.1c12-4,48.8-15.7,64.8-21.2L258.7,181.8z"/> <path class="st2" d="M294.1,168.9l4.1,8.4c45.9-20.1,56.2-39.6,49.7-49.1c-3.8-5.6-11.8-9.8-22.7-11.6c0.1,0.7,0.3,2.2,0.3,2.5 C360.4,132.7,323,156.6,294.1,168.9"/> </g> <g xmlns="http://www.w3.org/2000/svg"> <g> <polygon class="st3" points="192.3,346.8 201.7,346.8 201.7,382.7 210.5,382.7 210.5,346.8 221.4,346.8 221.4,339 189.1,339 "/> <polygon class="st3" points="315.6,339 303.9,339 303.7,339 303.6,339.3 293.1,369.2 282.4,339.3 282.3,339 282,339 270.4,339 270,339 270,339.4 270,382.3 270,382.7 270.4,382.7 278.3,382.7 278.7,382.7 278.7,382.3 278.4,349.9 289.8,382.4 289.9,382.7 290.2,382.7 295.9,382.7 296.1,382.7 296.2,382.4 307.5,349.9 307.7,382.3 307.7,382.7 308,382.7 315.6,382.7 316,382.7 316,382.3 316,339.4 316,339 "/> <polygon class="st3" points="230.9,382.7 258.6,382.7 258.6,374.9 239.6,374.9 239.6,364.4 255.9,364.4 255.9,356.7 239.6,356.7 239.6,346.8 257.8,346.8 257.8,339 230.9,339 "/> <polygon class="st3" points="326.9,339 330.1,346.7 330.4,382.7 330.5,382.7 330.5,382.7 339.2,382.7 339.1,339 "/> <path class="st3" d="M172.9,365.5c2.7-0.7,5.2-1.9,7-4.6c1.4-2,2.3-4.8,2.3-7.8c0-4.7-1.9-8.9-5.3-11.4c-2.3-1.6-6-2.7-12.5-2.7 h-12.8l3.2,7.7h11.4c2,0,3.7,0.3,5,1.1c1.6,1,2.6,3,2.6,5.1c0,2.1-0.9,4-2.2,5.1c-1.5,1.1-4,1.3-6.3,1.3H160l6.4,15.4 c1.9,4.4,4.5,7.9,9.8,7.9h11.1v-0.3c0,0-1,0-2.5-0.8c-3-1.5-6.9-4.1-9-9.2L172.9,365.5z"/> <path class="st3" d="M368.9,357.4c-7.4-3-9.8-3.8-9.7-7c0-2.9,2.4-5,5.3-5c4.3,0,5.1,3.3,5.5,5.3l8.7-0.1 c-0.4-9.7-8.1-12.7-13.9-12.6c-7.1,0.1-14.4,4.7-14.3,13.1c0.1,8.3,7.7,10.9,11,12c6.1,2.4,9.2,3.3,9.3,7c0,3.1-2.5,5.8-5.9,5.8 c-1.9,0-5.8-1.1-6.2-7l-8.7,0.1c0,8.4,5.2,14.3,15.1,14.2c10.3-0.1,14.5-6.7,14.4-13.7C379.3,363.3,375.5,360.2,368.9,357.4"/> <path class="st3" d="M127.7,370.2l-0.1,0l6.3-17l4.7,12.6C134.2,366.4,129.2,368.2,127.7,370.2 M154.2,382.7L136.1,339h-4.4 l-18.1,43.6h9.3c2.2-4.8,9-9.8,17.9-10.9l4.1,10.9H154.2z"/> </g> <g> <path class="st3" d="M253.1,85.4L253.1,85.4c-0.6-1.3-1.9-2.1-3.4-2.1c-1.5,0-2.8,0.9-3.4,2.1h0l-50.3,102.3 c9.6-2.7,19.8-5.6,29.2-8.3l24.3-53.8l60.1,135.4c12.8,3.8,25.2,8.8,36.9,14.9L253.1,85.4z"/> <path class="st3" d="M197.9,211.8c-5.9,1.9-11.4,3.8-16.5,5.9l-28.5,58c11.7-6,24-11,36.8-14.8l24.2-54.3 C207.1,208.8,201.4,210.7,197.9,211.8"/> </g> </g> </svg>